<svg width="264" height="39" viewBox="0 0 264 39" fill="none" xmlns="http://www.w3.org/2000/svg">
<path d="M71.2811 22.8072L67.134 0H51.9771L28.8235 22.8072H41.4543L44.9641 18.9477H59L59.4543 22.8072H71.2811ZM49.1765 13.683L57.5981 4.91176L58.3007 13.683H49.1765Z" fill="white"/>
<path d="M175.961 9.79734L170.533 22.8071H181.85L190.562 2.13721L175.961 9.79734Z" fill="white"/>
<path d="M185.621 22.8072L195.297 0H212.288L214.395 17.5425L221.889 0H231.206L221.412 22.8072H204.922L203.167 5.61438L195.797 22.8072H185.621Z" fill="white"/>
<path d="M255.562 39.0002H0L4.50654 28.5198H260.056L255.562 39.0002Z" fill="#00FF00"/>
<path d="M7.73525 0L5.05878 6.43464H16.281L9.28427 22.8072H20.8627L26.8758 8.75163L24.5522 6.4281H29.9706V6.43464H37.9902L40.7549 0H7.73525Z" fill="white"/>
<path d="M144.052 0H115.5L105.748 22.9052L117.258 22.8072L120.863 14.3856H137.114L139.366 9.12418H123.108L123.592 7.98693L120.879 5.27125H124.748L124.755 5.2647H141.82L144.052 0Z" fill="white"/>
<path d="M176.562 0H147.712L137.987 22.8072H166.837L169.082 17.5425H151.32L152.987 13.683H167.811L169.925 8.77123H155.082L155.83 7.01633L154.085 5.27125H156.575L156.579 5.2647H174.317L176.562 0Z" fill="white"/>
<path d="M263.817 0H234.971L225.242 22.8072H254.092L256.337 17.5425H238.575L240.242 13.683H255.065L257.18 8.77123H242.337L242.722 7.87254L240.118 5.27125H243.83L243.833 5.2647H261.572L263.817 0Z" fill="white"/>
<path d="M111.801 0H83.2484L73.4968 22.9052L85.0098 22.8072L88.6111 14.3856H104.866L107.114 9.12418H90.8562L91.3693 7.92157L88.7157 5.27125H92.5L92.5033 5.2647H109.569L111.801 0Z" fill="white"/>
<path d="M180.209 0L177.02 7.52286L190.781 0H180.209Z" fill="#00FF00"/>
<path d="M21.8333 35.8041C21.83 35.8172 21.817 35.827 21.7974 35.8335C21.5751 35.9152 21.3137 35.9904 21.0163 36.059C20.7189 36.1276 20.4019 36.1603 20.0686 36.1603C19.696 36.1603 19.3464 36.1146 19.013 36.0231C18.6797 35.9316 18.4019 35.7943 18.1764 35.608C17.9509 35.4218 17.7974 35.1865 17.7189 34.8989C17.6372 34.6113 17.6666 34.2747 17.8039 33.8858C17.9215 33.5525 18.0751 33.2584 18.2679 33.01C18.4575 32.7616 18.6732 32.5459 18.9052 32.3629C19.1372 32.1799 19.3823 32.0329 19.6405 31.9152C19.8954 31.7976 20.147 31.7028 20.3954 31.6342C20.6438 31.5656 20.8791 31.5165 21.1013 31.4904C21.3235 31.4642 21.5196 31.4512 21.6862 31.4512C22.0457 31.4512 22.3562 31.4806 22.6176 31.5394C22.8791 31.5982 23.0947 31.6538 23.2581 31.7126C23.2712 31.7191 23.2745 31.7322 23.2712 31.7485L23.0327 32.6015C23.0228 32.6309 23.0065 32.644 22.9804 32.644C22.9771 32.644 22.9738 32.644 22.9706 32.6407C22.9706 32.6375 22.9673 32.6374 22.964 32.6374C22.9215 32.6178 22.8529 32.5884 22.7581 32.5492C22.6634 32.5133 22.549 32.4741 22.415 32.4381C22.2778 32.4022 22.1242 32.3695 21.9542 32.3433C21.781 32.3172 21.5915 32.3041 21.3856 32.3041C21.1045 32.3041 20.8202 32.3433 20.5359 32.4185C20.2483 32.4937 19.9804 32.6048 19.7287 32.7453C19.4771 32.8858 19.2581 33.0525 19.0686 33.2453C18.8791 33.4381 18.7451 33.6538 18.6601 33.8891C18.5947 34.0754 18.5751 34.2387 18.598 34.3825C18.6209 34.5263 18.6764 34.6472 18.7614 34.7551C18.8464 34.8597 18.9542 34.9479 19.0817 35.0165C19.2124 35.0852 19.3529 35.144 19.5 35.1865C19.647 35.2289 19.8006 35.2616 19.9542 35.278C20.1046 35.2976 20.2451 35.3074 20.3758 35.3074C20.5621 35.3074 20.7483 35.291 20.9346 35.2551C21.1209 35.2192 21.2974 35.1799 21.4575 35.1309C21.6176 35.0852 21.7647 35.0329 21.8954 34.9839C22.0261 34.9316 22.1307 34.8891 22.2026 34.8564C22.2059 34.8564 22.2091 34.8564 22.2124 34.8531C22.2157 34.8499 22.2189 34.8499 22.2222 34.8499C22.2549 34.8499 22.2614 34.8629 22.2451 34.8923L21.8333 35.8041Z" fill="black"/>
<path d="M25.6372 35.9969L29.4084 31.5786C29.4313 31.5623 29.4476 31.5525 29.4607 31.5525H30.3888C30.4084 31.5525 30.4215 31.5623 30.4247 31.5786L31.0783 35.9969C31.0816 36.0133 31.0751 36.0296 31.0587 36.046C31.0424 36.0623 31.0261 36.0721 31.0097 36.0721H30.1633C30.1437 36.0721 30.1306 36.0623 30.1306 36.0427L30.0228 35.3008C30.0195 35.2845 30.0097 35.2747 29.9868 35.2747H27.2385C27.2221 35.2747 27.2058 35.2845 27.1927 35.3008L26.5587 36.0427C26.5391 36.0623 26.5195 36.0721 26.5032 36.0721H25.6568C25.6372 36.0721 25.6241 36.0656 25.6208 36.046C25.6176 36.0296 25.6241 36.0133 25.6372 35.9969ZM27.9836 34.4185H29.8398C29.8529 34.4185 29.8627 34.412 29.8725 34.4022C29.8823 34.3924 29.8855 34.3826 29.879 34.376L29.6045 32.5067C29.6045 32.4871 29.5947 32.4871 29.5751 32.5067L27.9738 34.376C27.9574 34.4022 27.9607 34.4185 27.9836 34.4185Z" fill="black"/>
<path d="M36.6078 31.5525H40.6438C40.6732 31.5525 40.6862 31.5656 40.6797 31.5884L40.6568 32.3368C40.6601 32.3532 40.6536 32.3695 40.6372 32.3825C40.6209 32.3956 40.6045 32.4054 40.5817 32.4054H37.1536C37.1209 32.4054 37.098 32.4218 37.0849 32.4545L36.6797 33.5982C36.6666 33.6309 36.6797 33.6473 36.7124 33.6473H39.3431C39.3627 33.6473 39.3758 33.6538 39.3823 33.6701C39.3889 33.6832 39.3823 33.6995 39.3692 33.7159L38.8692 34.4642C38.8529 34.4904 38.83 34.5002 38.8072 34.5002H36.4117C36.3791 34.5002 36.3562 34.5165 36.3431 34.5492L35.8268 36.01C35.8137 36.046 35.7876 36.0656 35.7516 36.0656H35.0098C34.9738 36.0656 34.9608 36.046 34.9738 36.01L36.5294 31.6048C36.5457 31.5721 36.5719 31.5525 36.6078 31.5525Z" fill="black"/>
<path d="M45.0163 31.5525H49.0523C49.0817 31.5525 49.0948 31.5656 49.0882 31.5884L49.0653 32.3368C49.0686 32.3532 49.0621 32.3695 49.0457 32.3825C49.0294 32.3956 49.0131 32.4054 48.9902 32.4054H45.5621C45.5294 32.4054 45.5065 32.4218 45.4935 32.4545L45.0882 33.5982C45.0751 33.6309 45.0882 33.6473 45.1209 33.6473H47.7516C47.7712 33.6473 47.7843 33.6538 47.7908 33.6701C47.7974 33.6832 47.7908 33.6995 47.7778 33.7159L47.2778 34.4642C47.2614 34.4904 47.2385 34.5002 47.2157 34.5002H44.8203C44.7876 34.5002 44.7647 34.5165 44.7516 34.5492L44.2353 36.01C44.2222 36.046 44.1961 36.0656 44.1601 36.0656H43.4183C43.3823 36.0656 43.3693 36.046 43.3823 36.01L44.9379 31.6048C44.9542 31.5721 44.9804 31.5525 45.0163 31.5525Z" fill="black"/>
<path d="M53.3431 31.6277C53.3595 31.5819 53.3922 31.5591 53.4412 31.5591H57.5882C57.6078 31.5591 57.6209 31.5689 57.6209 31.5885L57.5948 32.3499C57.598 32.3663 57.5915 32.3793 57.5752 32.3924C57.5621 32.4055 57.5457 32.412 57.5294 32.412H53.9902C53.9444 32.412 53.915 32.4349 53.8987 32.4806L53.598 33.327C53.585 33.3597 53.5948 33.3761 53.6242 33.3761H56.2712C56.2876 33.3761 56.2974 33.3826 56.3007 33.3957C56.3039 33.4088 56.3006 33.4218 56.2941 33.4316L55.7843 34.1931C55.768 34.2192 55.7451 34.229 55.7222 34.229H53.3203C53.2908 34.229 53.2712 34.2421 53.2614 34.2715L52.9608 35.1179C52.9542 35.1375 52.9542 35.1571 52.9608 35.1702C52.9673 35.1865 52.9804 35.1931 53.0033 35.1931H56.5425C56.5588 35.1931 56.5686 35.1996 56.5752 35.2127C56.5817 35.2257 56.5784 35.2388 56.5654 35.2486L56.0556 36.0101C56.0392 36.0297 56.0229 36.0395 56 36.0395H51.8529C51.8039 36.0395 51.7876 36.0166 51.8039 35.9708L53.3431 31.6277Z" fill="black"/>
<path d="M60.4771 36.0623C60.4477 36.0623 60.4379 36.0492 60.4477 36.0198L62.0131 31.595C62.0229 31.5656 62.0425 31.5525 62.0719 31.5525H62.8399C62.8693 31.5525 62.8791 31.5656 62.8693 31.595L61.3039 36.0198C61.2941 36.0492 61.2745 36.0623 61.2451 36.0623H60.4771Z" fill="black"/>
<path d="M67.147 31.5587H67.7712C67.7973 31.5587 67.8072 31.5652 67.8072 31.5783L69.9052 34.6796C69.9085 34.6829 69.915 34.6861 69.9215 34.6861C69.9346 34.6861 69.9411 34.6796 69.9477 34.6665L71.0196 31.6175C71.0326 31.575 71.0621 31.5554 71.1045 31.5554H71.8333C71.8758 31.5554 71.8889 31.575 71.8725 31.6175L70.33 35.9999C70.3137 36.0456 70.2843 36.0685 70.2385 36.0685H69.6438C69.6241 36.0685 69.6111 36.062 69.6078 36.0489L67.4902 32.9182C67.4836 32.9084 67.4771 32.9083 67.4706 32.9116C67.464 32.9149 67.4575 32.9214 67.4542 32.9312L66.366 36.0064C66.3529 36.0489 66.3202 36.0685 66.2745 36.0685H65.5523C65.5098 36.0685 65.4967 36.0489 65.513 36.0064L67.0621 31.624C67.0784 31.5783 67.1078 31.5587 67.147 31.5587Z" fill="black"/>
<path d="M76.085 31.6277C76.1013 31.5819 76.134 31.5591 76.183 31.5591H80.3301C80.3497 31.5591 80.3627 31.5689 80.3627 31.5885L80.3366 32.3499C80.3399 32.3663 80.3333 32.3793 80.317 32.3924C80.3039 32.4055 80.2876 32.412 80.2712 32.412H76.732C76.6863 32.412 76.6569 32.4349 76.6405 32.4806L76.3399 33.327C76.3268 33.3597 76.3366 33.3761 76.366 33.3761H79.0131C79.0294 33.3761 79.0392 33.3826 79.0425 33.3957C79.0457 33.4088 79.0425 33.4218 79.0359 33.4316L78.5261 34.1931C78.5098 34.2192 78.4869 34.229 78.464 34.229H76.0621C76.0327 34.229 76.0131 34.2421 76.0033 34.2715L75.7026 35.1179C75.6961 35.1375 75.6961 35.1571 75.7026 35.1702C75.7091 35.1865 75.7222 35.1931 75.7451 35.1931H79.2843C79.3006 35.1931 79.3104 35.1996 79.317 35.2127C79.3235 35.2257 79.3203 35.2388 79.3072 35.2486L78.7974 36.0101C78.781 36.0297 78.7647 36.0395 78.7418 36.0395H74.5948C74.5457 36.0395 74.5294 36.0166 74.5457 35.9708L76.085 31.6277Z" fill="black"/>
<path d="M87.1405 37.7419C87.1111 37.7419 87.1013 37.7256 87.1143 37.6929L89.4052 31.2158C89.4182 31.1831 89.4379 31.1667 89.4673 31.1667H89.9379C89.9673 31.1667 89.9771 31.1831 89.964 31.2158L87.6732 37.6929C87.6601 37.7256 87.6405 37.7419 87.6111 37.7419H87.1405Z" fill="black"/>
<path d="M98.1209 32.2874L98.6307 31.5619C98.6339 31.5554 98.6405 31.5488 98.647 31.5488H103.356C103.366 31.5488 103.366 31.5521 103.363 31.5619L103.372 32.2874C103.369 32.3005 103.359 32.307 103.346 32.307H101.18C101.167 32.307 101.16 32.3135 101.154 32.3266L99.8464 36.026C99.8366 36.0521 99.8235 36.0619 99.8039 36.0619H99.0195C98.9999 36.0619 98.9934 36.0488 99.0032 36.026L100.31 32.3266C100.314 32.3135 100.31 32.307 100.297 32.307H98.1307C98.1209 32.307 98.1143 32.3005 98.1209 32.2874Z" fill="black"/>
<path d="M104.957 35.9969L108.729 31.5786C108.752 31.5623 108.768 31.5525 108.781 31.5525H109.709C109.729 31.5525 109.742 31.5623 109.745 31.5786L110.399 35.9969C110.402 36.0133 110.395 36.0296 110.379 36.046C110.363 36.0623 110.346 36.0721 110.33 36.0721H109.484C109.464 36.0721 109.451 36.0623 109.451 36.0427L109.343 35.3008C109.34 35.2845 109.33 35.2747 109.307 35.2747H106.559C106.542 35.2747 106.526 35.2845 106.513 35.3008L105.879 36.0427C105.859 36.0623 105.84 36.0721 105.823 36.0721H104.977C104.957 36.0721 104.944 36.0656 104.941 36.046C104.938 36.0296 104.944 36.0133 104.957 35.9969ZM107.304 34.4185H109.16C109.173 34.4185 109.183 34.412 109.193 34.4022C109.203 34.3924 109.206 34.3826 109.199 34.376L108.925 32.5067C108.925 32.4871 108.915 32.4871 108.895 32.5067L107.294 34.376C107.278 34.4022 107.281 34.4185 107.304 34.4185Z" fill="black"/>
<path d="M115.595 31.5525H116.301C116.32 31.5525 116.337 31.559 116.346 31.5754C116.356 31.5884 116.356 31.608 116.35 31.6276L115.546 33.9054C115.454 34.1636 115.428 34.3826 115.467 34.5623C115.507 34.7388 115.592 34.8858 115.712 34.9969C115.837 35.108 115.993 35.1897 116.183 35.2388C116.373 35.2878 116.575 35.3139 116.784 35.3139C116.993 35.3139 117.212 35.2878 117.438 35.2388C117.663 35.1897 117.879 35.108 118.078 34.9969C118.278 34.8858 118.464 34.742 118.631 34.5623C118.797 34.3858 118.925 34.1669 119.016 33.9054L119.82 31.6276C119.837 31.5786 119.873 31.5525 119.922 31.5525H120.627C120.676 31.5525 120.693 31.5786 120.676 31.6276L119.873 33.9054C119.752 34.2453 119.582 34.5492 119.359 34.827C119.137 35.1015 118.876 35.3401 118.578 35.5394C118.281 35.7388 117.954 35.8924 117.598 36.0002C117.242 36.108 116.869 36.1636 116.48 36.1636C116.091 36.1636 115.758 36.108 115.477 36.0002C115.196 35.8924 114.977 35.7388 114.82 35.5394C114.663 35.3401 114.572 35.1048 114.546 34.827C114.52 34.5492 114.565 34.242 114.686 33.9054L115.49 31.6276C115.51 31.5786 115.546 31.5525 115.595 31.5525Z" fill="black"/>
<path d="M124.837 31.5914C124.846 31.5652 124.863 31.5554 124.886 31.5554H128.363C128.565 31.5554 128.739 31.5946 128.879 31.6763C129.023 31.758 129.131 31.8659 129.209 31.9999C129.288 32.1371 129.33 32.2907 129.34 32.4672C129.35 32.6436 129.324 32.8234 129.258 33.0097C129.19 33.1992 129.095 33.3757 128.967 33.5358C128.84 33.6959 128.693 33.8365 128.529 33.9574C128.363 34.0783 128.183 34.1698 127.987 34.2384C127.791 34.307 127.595 34.343 127.395 34.3463C127.379 34.3463 127.376 34.3528 127.382 34.3659L128.314 36.0195C128.32 36.0293 128.317 36.0391 128.307 36.0489C128.297 36.0587 128.284 36.0685 128.271 36.0685H127.268C127.258 36.0685 127.252 36.0652 127.248 36.0554L126.288 34.3593C126.281 34.3495 126.275 34.3463 126.268 34.3463H124.752C124.726 34.3463 124.709 34.3593 124.703 34.3822L124.124 36.0227C124.114 36.0489 124.098 36.0587 124.075 36.0587H123.294C123.268 36.0587 123.261 36.0456 123.271 36.0227L124.837 31.5914ZM125.059 33.4901H127.683C127.748 33.4901 127.817 33.4802 127.892 33.4606C127.964 33.441 128.036 33.4149 128.101 33.3724C128.17 33.3332 128.229 33.2842 128.284 33.2221C128.34 33.16 128.382 33.0881 128.412 33.0064C128.441 32.9247 128.454 32.8463 128.448 32.7744C128.441 32.7025 128.422 32.6404 128.389 32.5848C128.353 32.5325 128.311 32.4868 128.255 32.4541C128.199 32.4214 128.137 32.4051 128.069 32.4051H125.444C125.418 32.4051 125.402 32.4182 125.395 32.441L125.039 33.4508C125.023 33.477 125.033 33.4901 125.059 33.4901Z" fill="black"/>
<path d="M132.235 36.0623C132.206 36.0623 132.196 36.0492 132.206 36.0198L133.771 31.595C133.781 31.5656 133.801 31.5525 133.83 31.5525H134.598C134.627 31.5525 134.637 31.5656 134.627 31.595L133.062 36.0198C133.052 36.0492 133.033 36.0623 133.003 36.0623H132.235Z" fill="black"/>
<path d="M138.905 31.5587H139.529C139.556 31.5587 139.565 31.5652 139.565 31.5783L141.663 34.6796C141.667 34.6829 141.673 34.6861 141.68 34.6861C141.693 34.6861 141.699 34.6796 141.706 34.6665L142.778 31.6175C142.791 31.575 142.82 31.5554 142.863 31.5554H143.591C143.634 31.5554 143.647 31.575 143.631 31.6175L142.088 35.9999C142.072 36.0456 142.042 36.0685 141.997 36.0685H141.402C141.382 36.0685 141.369 36.062 141.366 36.0489L139.248 32.9182C139.242 32.9084 139.235 32.9083 139.229 32.9116C139.222 32.9149 139.216 32.9214 139.212 32.9312L138.124 36.0064C138.111 36.0489 138.078 36.0685 138.033 36.0685H137.31C137.268 36.0685 137.255 36.0489 137.271 36.0064L138.82 31.624C138.837 31.5783 138.866 31.5587 138.905 31.5587Z" fill="black"/>
<path d="M147.843 31.6277C147.86 31.5819 147.892 31.5591 147.941 31.5591H152.088C152.108 31.5591 152.121 31.5689 152.121 31.5885L152.095 32.3499C152.098 32.3663 152.092 32.3793 152.075 32.3924C152.062 32.4055 152.046 32.412 152.029 32.412H148.49C148.445 32.412 148.415 32.4349 148.399 32.4806L148.098 33.327C148.085 33.3597 148.095 33.3761 148.124 33.3761H150.771C150.788 33.3761 150.797 33.3826 150.801 33.3957C150.804 33.4088 150.801 33.4218 150.794 33.4316L150.284 34.1931C150.268 34.2192 150.245 34.229 150.222 34.229H147.82C147.791 34.229 147.771 34.2421 147.762 34.2715L147.461 35.1179C147.454 35.1375 147.454 35.1571 147.461 35.1702C147.467 35.1865 147.48 35.1931 147.503 35.1931H151.043C151.059 35.1931 151.069 35.1996 151.075 35.2127C151.082 35.2257 151.078 35.2388 151.065 35.2486L150.556 36.0101C150.539 36.0297 150.523 36.0395 150.5 36.0395H146.353C146.304 36.0395 146.288 36.0166 146.304 35.9708L147.843 31.6277Z" fill="black"/>
<path d="M158.899 37.7419C158.869 37.7419 158.863 37.7256 158.873 37.6929L161.163 31.2158C161.177 31.1831 161.196 31.1667 161.226 31.1667H161.696C161.726 31.1667 161.735 31.1831 161.722 31.2158L159.431 37.6929C159.418 37.7256 159.399 37.7419 159.369 37.7419H158.899Z" fill="black"/>
<path d="M170.17 31.5525H171.092C171.108 31.5525 171.114 31.559 171.114 31.5721L171.948 34.8205C171.951 34.8335 171.961 34.8401 171.974 34.8401C171.987 34.8401 171.997 34.8335 172.003 34.8205L174.928 31.5721C174.931 31.559 174.941 31.5525 174.961 31.5525H175.859C175.873 31.5525 175.879 31.559 175.886 31.5688C175.889 31.5786 175.886 31.5917 175.873 31.6015L171.869 36.0492C171.853 36.0623 171.843 36.0688 171.837 36.0688H171.288C171.275 36.0688 171.268 36.0623 171.261 36.0492L170.131 31.6015C170.124 31.5917 170.127 31.5819 170.137 31.5721C170.147 31.5623 170.157 31.5525 170.17 31.5525Z" fill="black"/>
<path d="M178.056 36.0623C178.026 36.0623 178.016 36.0492 178.026 36.0198L179.588 31.595C179.598 31.5656 179.618 31.5525 179.647 31.5525H180.415C180.444 31.5525 180.454 31.5656 180.444 31.595L178.882 36.0198C178.873 36.0492 178.853 36.0623 178.824 36.0623H178.056Z" fill="black"/>
<path d="M184.098 32.2874L184.608 31.5619C184.611 31.5554 184.618 31.5488 184.624 31.5488H189.333C189.343 31.5488 189.343 31.5521 189.343 31.5619L189.353 32.2874C189.35 32.3005 189.34 32.307 189.327 32.307H187.16C187.147 32.307 187.141 32.3135 187.134 32.3266L185.827 36.026C185.817 36.0521 185.804 36.0619 185.784 36.0619H185C184.98 36.0619 184.974 36.0488 184.984 36.026L186.291 32.3266C186.294 32.3135 186.291 32.307 186.278 32.307H184.111C184.098 32.307 184.095 32.3005 184.098 32.2874Z" fill="black"/>
<path d="M190.938 35.9969L194.709 31.5786C194.732 31.5623 194.748 31.5525 194.762 31.5525H195.69C195.709 31.5525 195.722 31.5623 195.726 31.5786L196.379 35.9969C196.382 36.0133 196.376 36.0296 196.36 36.046C196.343 36.0623 196.327 36.0721 196.311 36.0721H195.464C195.444 36.0721 195.431 36.0623 195.431 36.0427L195.324 35.3008C195.32 35.2845 195.311 35.2747 195.288 35.2747H192.539C192.523 35.2747 192.507 35.2845 192.494 35.3008L191.86 36.0427C191.84 36.0623 191.82 36.0721 191.804 36.0721H190.958C190.938 36.0721 190.925 36.0656 190.922 36.046C190.915 36.0296 190.922 36.0133 190.938 35.9969ZM193.281 34.4185H195.137C195.15 34.4185 195.16 34.412 195.17 34.4022C195.18 34.3924 195.183 34.3826 195.177 34.376L194.902 32.5067C194.902 32.4871 194.892 32.4871 194.873 32.5067L193.271 34.376C193.255 34.4022 193.258 34.4185 193.281 34.4185Z" fill="black"/>
<path d="M201.922 31.5459H202.536C202.552 31.5459 202.565 31.5524 202.578 31.572L203.804 34.1472C203.81 34.1537 203.82 34.1537 203.833 34.1472L206.872 31.572C206.895 31.5557 206.915 31.5459 206.931 31.5459H207.549C207.591 31.5459 207.605 31.5688 207.588 31.6145L206.039 35.9969C206.023 36.0426 205.993 36.0655 205.954 36.0655H205.229C205.186 36.0655 205.173 36.0426 205.189 35.9969L206.209 33.1145C206.212 33.1015 206.209 33.0949 206.196 33.0949C206.186 33.0949 206.18 33.0982 206.176 33.1015L203.68 35.2126C203.657 35.2289 203.637 35.2387 203.621 35.2387H203.242C203.222 35.2387 203.206 35.2322 203.196 35.2126L202.189 33.1015L202.18 33.0949C202.167 33.0949 202.16 33.1015 202.154 33.1145L201.134 35.9969C201.118 36.0426 201.088 36.0655 201.042 36.0655H200.323C200.278 36.0655 200.265 36.0426 200.281 35.9969L201.83 31.6145C201.843 31.5688 201.876 31.5459 201.922 31.5459Z" fill="black"/>
<path d="M210.075 36.0623C210.046 36.0623 210.036 36.0492 210.046 36.0198L211.611 31.595C211.621 31.5656 211.64 31.5525 211.67 31.5525H212.438C212.467 31.5525 212.477 31.5656 212.467 31.595L210.902 36.0198C210.892 36.0492 210.872 36.0623 210.843 36.0623H210.075Z" fill="black"/>
<path d="M216.748 31.5587H217.373C217.399 31.5587 217.409 31.5652 217.409 31.5783L219.507 34.6796C219.51 34.6829 219.516 34.6861 219.523 34.6861C219.536 34.6861 219.543 34.6796 219.549 34.6665L220.621 31.6175C220.634 31.575 220.663 31.5554 220.706 31.5554H221.435C221.477 31.5554 221.49 31.575 221.474 31.6175L219.931 35.9999C219.915 36.0456 219.886 36.0685 219.84 36.0685H219.245C219.226 36.0685 219.212 36.062 219.209 36.0489L217.092 32.9182C217.085 32.9084 217.078 32.9083 217.072 32.9116C217.065 32.9149 217.059 32.9214 217.056 32.9312L215.967 36.0064C215.954 36.0489 215.922 36.0685 215.876 36.0685H215.154C215.111 36.0685 215.098 36.0489 215.114 36.0064L216.663 31.624C216.68 31.5783 216.706 31.5587 216.748 31.5587Z" fill="black"/>
<path d="M230.405 31.5525H233.641C233.912 31.5525 234.127 31.5917 234.284 31.6669C234.441 31.742 234.556 31.8401 234.624 31.9577C234.693 32.0754 234.725 32.2061 234.722 32.3499C234.719 32.4937 234.693 32.6342 234.644 32.7714C234.598 32.8989 234.539 33.0198 234.464 33.1309C234.389 33.242 234.307 33.3401 234.219 33.425C234.131 33.51 234.036 33.5754 233.938 33.6244C233.84 33.6734 233.745 33.6963 233.65 33.6963L233.647 33.7093C233.745 33.7093 233.85 33.7257 233.958 33.7584C234.065 33.7911 234.157 33.8466 234.232 33.9218C234.307 33.9969 234.356 34.1015 234.382 34.2355C234.408 34.3695 234.382 34.5329 234.314 34.729C234.271 34.8499 234.199 34.9871 234.095 35.1407C233.99 35.2943 233.856 35.4414 233.696 35.5754C233.533 35.7126 233.343 35.827 233.118 35.9218C232.895 36.0165 232.641 36.0656 232.356 36.0656H228.81C228.774 36.0656 228.761 36.046 228.774 36.01L230.33 31.6113C230.343 31.5721 230.369 31.5525 230.405 31.5525ZM230.258 34.2322L229.931 35.1538C229.918 35.1898 229.931 35.2094 229.967 35.2094H232.578C232.739 35.2094 232.876 35.1897 232.984 35.1505C233.091 35.1113 233.18 35.0656 233.245 35.0133C233.31 34.961 233.359 34.9087 233.395 34.8531C233.428 34.7976 233.451 34.7551 233.461 34.7257C233.513 34.5819 233.493 34.4544 233.408 34.3466C233.324 34.2388 233.16 34.1832 232.915 34.1832H230.327C230.294 34.1832 230.268 34.1996 230.258 34.2322ZM230.634 33.3237H233.101C233.275 33.3237 233.418 33.2878 233.533 33.2191C233.647 33.1505 233.735 33.0263 233.794 32.8531C233.84 32.7224 233.837 32.6146 233.781 32.5296C233.725 32.4479 233.608 32.4054 233.425 32.4054H230.958C230.922 32.4054 230.895 32.425 230.882 32.461L230.595 33.2714C230.585 33.3074 230.598 33.3237 230.634 33.3237Z" fill="black"/>
<path d="M241.703 32.9936C241.817 32.9936 241.954 33.0002 242.111 33.0198C242.268 33.0394 242.428 33.0688 242.595 33.1113C242.758 33.1571 242.918 33.2192 243.069 33.2943C243.219 33.3695 243.343 33.4675 243.441 33.5851C243.539 33.7028 243.605 33.8433 243.634 34.01C243.663 34.1734 243.641 34.3695 243.562 34.5917C243.484 34.8106 243.373 35.0002 243.226 35.1636C243.078 35.327 242.915 35.4675 242.732 35.5851C242.549 35.7028 242.356 35.7976 242.15 35.8727C241.944 35.9479 241.745 36.0067 241.552 36.0492C241.36 36.0917 241.18 36.1211 241.01 36.1374C240.84 36.1538 240.699 36.1636 240.588 36.1636C240.35 36.1636 240.114 36.1538 239.889 36.1309C239.66 36.108 239.451 36.0656 239.258 36.0067C239.065 35.9479 238.895 35.8629 238.745 35.7584C238.595 35.6538 238.484 35.5165 238.405 35.3499C238.327 35.1832 238.294 34.9806 238.301 34.7453C238.307 34.5067 238.369 34.229 238.484 33.9054C238.526 33.7812 238.595 33.6342 238.683 33.4642C238.771 33.2943 238.889 33.1211 239.029 32.9381C239.173 32.7584 239.343 32.5786 239.543 32.3989C239.742 32.2191 239.974 32.0623 240.239 31.9218C240.507 31.7812 240.807 31.6668 241.144 31.5819C241.48 31.4936 241.859 31.4512 242.275 31.4512C242.448 31.4512 242.621 31.461 242.791 31.4773C242.964 31.4937 243.124 31.5165 243.275 31.5427C243.425 31.5688 243.565 31.6015 243.69 31.6374C243.814 31.6734 243.915 31.7159 243.99 31.7616C244.007 31.7714 244.016 31.7812 244.016 31.7976C244.016 31.8139 244.01 31.8335 244 31.8531L243.536 32.5525C243.523 32.5721 243.51 32.5884 243.493 32.595C243.477 32.6048 243.458 32.608 243.441 32.608C243.425 32.608 243.412 32.6048 243.405 32.6015C243.369 32.5754 243.31 32.5492 243.235 32.5133C243.157 32.4806 243.059 32.4479 242.941 32.4185C242.824 32.3891 242.683 32.3597 242.52 32.3368C242.356 32.3139 242.173 32.3041 241.967 32.3041C241.683 32.3041 241.402 32.3335 241.124 32.3956C240.846 32.4577 240.588 32.559 240.346 32.6995C240.105 32.8401 239.889 33.0231 239.699 33.2486C239.51 33.474 239.36 33.7485 239.245 34.0753C239.389 33.8923 239.552 33.7355 239.739 33.5982C239.925 33.461 240.124 33.3499 240.337 33.2584C240.549 33.1668 240.768 33.1015 241 33.0557C241.242 33.0165 241.471 32.9936 241.703 32.9936ZM240.879 35.3106C241.16 35.3106 241.409 35.291 241.621 35.2486C241.833 35.2061 242.02 35.1538 242.17 35.0852C242.32 35.0165 242.441 34.9414 242.529 34.8564C242.618 34.7714 242.676 34.6832 242.709 34.595C242.742 34.5035 242.739 34.4152 242.703 34.327C242.667 34.2388 242.595 34.1571 242.487 34.0852C242.379 34.0133 242.239 33.9544 242.056 33.9119C241.873 33.8695 241.657 33.8466 241.402 33.8466C241.209 33.8466 241.007 33.8695 240.801 33.9185C240.595 33.9675 240.402 34.0296 240.222 34.1113C240.043 34.193 239.889 34.2845 239.758 34.3858C239.627 34.4904 239.543 34.5982 239.503 34.7126C239.464 34.827 239.484 34.925 239.565 35.0035C239.647 35.0819 239.761 35.144 239.905 35.1897C240.049 35.2355 240.212 35.2682 240.389 35.2845C240.569 35.3008 240.729 35.3106 240.879 35.3106Z" fill="black"/>
</svg>
